#!OML:ASF H:\Dans Jumps\Project 1\Capture day 1\Session 1\subject.ASF
:FULLY-SPECIFIED
:DEGREES
167
root 0.196525 17.1148 -14.8476 14.6269 -0.117856 -1.71781
lowerback 6.67717 -0.285076 0.0645565
upperback 3.92915 -0.366771 2.01622
thorax 0.318609 -0.203716 2.06042
lowerneck -15.0239 0.704166 -1.59126
upperneck 21.0625 1.40403 -0.146513
head 9.08242 0.510072 0.385685
rclavicle -2.98177e-016 4.37326e-015
rhumerus -22.3293 -20.6379 -76.272
rradius 28.2582
rwrist 28.5716
rhand -19.2144 -25.8967
rfingers 7.12502
rthumb 7.09819 -55.7576
lclavicle -2.98177e-016 4.37326e-015
lhumerus -19.8458 -0.446672 85.2574
lradius 25.0177
lwrist 8.71341
lhand -26.4805 -4.38591
lfingers 7.12502
lthumb 0.0816321 25.5938
rfemur -34.6352 -2.56617 21.6867
rtibia 37.4261
rfoot -17.1709 -4.14904
rtoes 8.6592
lfemur -35.1181 8.96563 -21.2637
ltibia 36.4755
lfoot -14.8588 6.53722
ltoes -3.80175
168
root 0.196334 17.0904 -14.8836 14.9957 -0.133205 -1.7272
lowerback 6.98907 -0.271145 0.0393238
upperback 3.94166 -0.346001 2.02584
thorax 0.158499 -0.193198 2.0855
lowerneck -15.1387 0.702236 -1.5938
upperneck 20.6716 1.40644 -0.174094
head 8.96906 0.511458 0.375833
rclavicle 3.67752e-015 -1.78906e-014
rhumerus -22.4379 -20.7793 -76.1706
rradius 28.184
rwrist 28.5789
rhand -19.1788 -26.018
rfingers 7.12502
rthumb 7.13256 -55.8778
lclavicle 3.67752e-015 -1.78906e-014
lhumerus -19.9066 -0.214871 85.1535
lradius 24.8176
lwrist 8.63396
lhand -26.4798 -4.3702
lfingers 7.12502
lthumb 0.0823597 25.6095
rfemur -35.4988 -2.54755 21.7241
rtibia 38.0217
rfoot -17.4134 -4.18202
rtoes 8.49575
lfemur -35.995 8.93727 -21.3354
ltibia 37.0905
lfoot -15.1063 6.72761
ltoes -4.26707
169
root 0.19624 17.0659 -14.9187 15.3615 -0.144916 -1.74044
lowerback 7.30314 -0.258503 0.0185612
upperback 3.95579 -0.326808 2.03734
thorax -0.000942662 -0.18339 2.11003
lowerneck -15.2617 0.701828 -1.59222
upperneck 20.2912 1.41145 -0.207705
head 8.86135 0.513649 0.363703
rclavicle 3.97569e-016 -1.31198e-014
rhumerus -22.5515 -20.9531 -76.0542
rradius 28.0686
rwrist 28.6723
rhand -19.1744 -26.0615
rfingers 7.12502
rthumb 7.13681 -55.9211
lclavicle 3.97569e-016 -1.31198e-014
lhumerus -19.9762 0.0441731 85.0493
lradius 24.6034
lwrist 8.54079
lhand -26.4663 -4.30295
lfingers 7.12502
lthumb 0.095355 25.6768
rfemur -36.3537 -2.53931 21.769
rtibia 38.6096
rfoot -17.6556 -4.21424
rtoes 8.28791
lfemur -36.8614 8.90202 -21.4006
ltibia 37.7007
lfoot -15.3508 6.9144
ltoes -4.71147
170
root 0.19623 17.0412 -14.9529 15.724 -0.151687 -1.75546
lowerback 7.61764 -0.248232 -1.92045e-005
upperback 3.97373 -0.310778 2.05044
thorax -0.156404 -0.175146 2.13515
lowerneck -15.3919 0.704685 -1.58486
upperneck 19.9159 1.42083 -0.247032
head 8.75712 0.517691 0.349316
rclavicle -1.08338e-014 -5.96354e-016
rhumerus -22.6658 -21.1505 -75.9283
rradius 27.9208
rwrist 28.8478
rhand -19.193 -26.0318
rfingers 7.12502
rthumb 7.11884 -55.8921
lclavicle -1.08338e-014 -5.96354e-016
lhumerus -20.0447 0.327042 84.9447
lradius 24.3671
lwrist 8.43909
lhand -26.4662 -4.2063
lfingers 7.12502
lthumb 0.0954787 25.7734
rfemur -37.1986 -2.54242 21.82
rtibia 39.1893
rfoot -17.8946 -4.23932
rtoes 8.05253
lfemur -37.7158 8.8581 -21.4603
ltibia 38.3037
lfoot -15.5876 7.10308
ltoes -5.12237
